<?xml version="1.0" encoding="UTF-8" standalone="no"?>
<!DOCTYPE svg PUBLIC "-//W3C//DTD SVG 1.1//EN" "http://www.w3.org/Graphics/SVG/1.1/DTD/svg11.dtd">
<svg width="100%" height="100%" viewBox="0 0 32 32" version="1.1" xmlns="http://www.w3.org/2000/svg" xmlns:xlink="http://www.w3.org/1999/xlink" xml:space="preserve" style="fill-rule:evenodd;clip-rule:evenodd;stroke-linejoin:round;stroke-miterlimit:1.41421;">
    <path d="M16,0L29.856,8L29.856,24L16,32L2.144,24L2.144,8L16,0ZM12.914,23.314C12.471,23.193 11.909,22.991 11.666,22.867C10.561,22.3 9.166,20.27 8.729,18.593C8.531,17.832 8.536,15.353 8.738,14.67C9.143,13.298 10.099,11.945 10.957,11.529C11.585,11.225 12.606,11.307 13.737,11.753C15.517,12.454 16.353,12.426 18,11.608C18.944,11.139 19.016,11.119 19.725,11.12C20.638,11.121 20.873,11.249 21.816,12.255C22.486,12.97 22.738,13.412 23.202,14.677C23.4,15.215 23.422,15.422 23.416,16.664C23.409,17.872 23.376,18.169 23.156,18.974C22.826,20.184 22.25,21.236 21.557,21.895C20.978,22.446 19.979,23.08 19.31,23.322C18.767,23.519 17.912,23.523 17.283,23.332C16.617,23.129 15.94,23.139 15.129,23.364C14.286,23.598 13.915,23.589 12.914,23.314L12.914,23.314ZM15.766,11.719C15.735,11.567 15.751,11.126 15.799,10.74C15.965,9.437 16.156,9.038 16.486,9.312C16.598,9.405 16.584,9.509 16.391,10.022C16.267,10.352 16.119,10.931 16.063,11.309C15.954,12.039 15.857,12.173 15.766,11.719ZM16.911,10.705C16.749,10.605 17.17,9.82 17.616,9.391C18.047,8.975 18.821,8.615 19.464,8.531L19.941,8.469L19.845,8.85C19.706,9.396 19.053,10.083 18.357,10.415C17.769,10.695 17.109,10.827 16.911,10.705Z" style="fill:rgb(40,42,54);"/>
</svg>
